<svg id="visual" viewBox="0 0 900 600" width="900" height="600" xmlns="http://www.w3.org/2000/svg" xmlns:xlink="http://www.w3.org/1999/xlink" version="1.1"><rect x="0" y="0" width="900" height="600" fill="#ffffff"></rect><path d="M0 409L21.5 405C43 401 86 393 128.8 396.7C171.7 400.3 214.3 415.7 257.2 422.3C300 429 343 427 385.8 415.8C428.7 404.7 471.3 384.3 514.2 357.7C557 331 600 298 642.8 294.7C685.7 291.3 728.3 317.7 771.2 332.2C814 346.7 857 349.3 878.5 350.7L900 352L900 0L878.5 0C857 0 814 0 771.2 0C728.3 0 685.7 0 642.8 0C600 0 557 0 514.2 0C471.3 0 428.7 0 385.8 0C343 0 300 0 257.2 0C214.3 0 171.7 0 128.8 0C86 0 43 0 21.5 0L0 0Z" fill="#ffffff"></path><path d="M0 297L21.5 296.7C43 296.3 86 295.7 128.8 285.5C171.7 275.3 214.3 255.7 257.2 249.7C300 243.7 343 251.3 385.8 261.5C428.7 271.7 471.3 284.3 514.2 283.8C557 283.3 600 269.7 642.8 272.2C685.7 274.7 728.3 293.3 771.2 290.8C814 288.3 857 264.7 878.5 252.8L900 241L900 0L878.5 0C857 0 814 0 771.2 0C728.3 0 685.7 0 642.8 0C600 0 557 0 514.2 0C471.3 0 428.7 0 385.8 0C343 0 300 0 257.2 0C214.3 0 171.7 0 128.8 0C86 0 43 0 21.5 0L0 0Z" fill="#dee4e9"></path><path d="M0 303L21.5 294.3C43 285.7 86 268.3 128.8 252.5C171.7 236.7 214.3 222.3 257.2 237.3C300 252.3 343 296.7 385.8 306.2C428.7 315.7 471.3 290.3 514.2 283.3C557 276.3 600 287.7 642.8 287.7C685.7 287.7 728.3 276.3 771.2 259.8C814 243.3 857 221.7 878.5 210.8L900 200L900 0L878.5 0C857 0 814 0 771.2 0C728.3 0 685.7 0 642.8 0C600 0 557 0 514.2 0C471.3 0 428.7 0 385.8 0C343 0 300 0 257.2 0C214.3 0 171.7 0 128.8 0C86 0 43 0 21.5 0L0 0Z" fill="#bec9d4"></path><path d="M0 190L21.5 194.5C43 199 86 208 128.8 204.2C171.7 200.3 214.3 183.7 257.2 182C300 180.3 343 193.7 385.8 208.2C428.7 222.7 471.3 238.3 514.2 239.8C557 241.3 600 228.7 642.8 215.7C685.7 202.7 728.3 189.3 771.2 183.3C814 177.3 857 178.7 878.5 179.3L900 180L900 0L878.5 0C857 0 814 0 771.2 0C728.3 0 685.7 0 642.8 0C600 0 557 0 514.2 0C471.3 0 428.7 0 385.8 0C343 0 300 0 257.2 0C214.3 0 171.7 0 128.8 0C86 0 43 0 21.5 0L0 0Z" fill="#9eb0be"></path><path d="M0 225L21.5 224.7C43 224.3 86 223.7 128.8 219.3C171.7 215 214.3 207 257.2 204.7C300 202.3 343 205.7 385.8 204.2C428.7 202.7 471.3 196.3 514.2 186C557 175.7 600 161.3 642.8 152.2C685.7 143 728.3 139 771.2 140.3C814 141.7 857 148.3 878.5 151.7L900 155L900 0L878.5 0C857 0 814 0 771.2 0C728.3 0 685.7 0 642.8 0C600 0 557 0 514.2 0C471.3 0 428.7 0 385.8 0C343 0 300 0 257.2 0C214.3 0 171.7 0 128.8 0C86 0 43 0 21.5 0L0 0Z" fill="#7e97aa"></path><path d="M0 142L21.5 138.3C43 134.7 86 127.3 128.8 120.5C171.7 113.7 214.3 107.3 257.2 118.3C300 129.3 343 157.7 385.8 165.3C428.7 173 471.3 160 514.2 150.3C557 140.7 600 134.3 642.8 128.3C685.7 122.3 728.3 116.7 771.2 118.8C814 121 857 131 878.5 136L900 141L900 0L878.5 0C857 0 814 0 771.2 0C728.3 0 685.7 0 642.8 0C600 0 557 0 514.2 0C471.3 0 428.7 0 385.8 0C343 0 300 0 257.2 0C214.3 0 171.7 0 128.8 0C86 0 43 0 21.5 0L0 0Z" fill="#5f7e95"></path><path d="M0 92L21.5 91.2C43 90.3 86 88.7 128.8 96.8C171.7 105 214.3 123 257.2 127.7C300 132.3 343 123.7 385.8 117.7C428.7 111.7 471.3 108.3 514.2 107.5C557 106.7 600 108.3 642.8 111.8C685.7 115.3 728.3 120.7 771.2 120C814 119.3 857 112.7 878.5 109.3L900 106L900 0L878.5 0C857 0 814 0 771.2 0C728.3 0 685.7 0 642.8 0C600 0 557 0 514.2 0C471.3 0 428.7 0 385.8 0C343 0 300 0 257.2 0C214.3 0 171.7 0 128.8 0C86 0 43 0 21.5 0L0 0Z" fill="#3e6781"></path><path d="M0 82L21.5 81.2C43 80.3 86 78.7 128.8 77.3C171.7 76 214.3 75 257.2 74.2C300 73.3 343 72.7 385.8 71C428.7 69.3 471.3 66.7 514.2 61.5C557 56.3 600 48.7 642.8 51.3C685.7 54 728.3 67 771.2 73.7C814 80.3 857 80.7 878.5 80.8L900 81L900 0L878.5 0C857 0 814 0 771.2 0C728.3 0 685.7 0 642.8 0C600 0 557 0 514.2 0C471.3 0 428.7 0 385.8 0C343 0 300 0 257.2 0C214.3 0 171.7 0 128.8 0C86 0 43 0 21.5 0L0 0Z" fill="#15506d"></path></svg>